<svg id="Ebene_1" data-name="Ebene 1" xmlns="http://www.w3.org/2000/svg" viewBox="0 0 146.79 200"><defs><style>.cls-1{fill:#fff;}</style></defs><path class="cls-1" d="M74.2,132.53c40.76-13.45,86.74-46,86.74-90.36C160.94,20.08,149.1,0,125.6,0,89.86,0,51.1,50.2,43.67,127.51H40.86c-9,0-14.25,3.61-14.25,6.83,0,2.61,3.21,4.82,10.44,4.82,1.81,0,3.81-.2,5.82-.2-.4,4.81-.4,9.84-.4,14.86,0,18.67,9.84,28.31,22.89,28.31,6.63,0,14.06-2.41,21.49-7.43-5-8.64-8.84-19.68-11-31.93C107.13,162.25,124,200,153.72,200c9.83,0,18.07-6.22,19.67-18.67-25.9-1.81-63.45-31.13-98.79-45.59A20.06,20.06,0,0,1,74.2,132.53Z" transform="translate(-26.61 0)"/></svg>