<svg id="Ebene_1" data-name="Ebene 1" xmlns="http://www.w3.org/2000/svg" viewBox="0 0 200 200"><defs><style>.cls-1{fill:#3e6599;}.cls-2{fill:#fff;}</style></defs><circle class="cls-1" cx="100" cy="100" r="100"/><path class="cls-2" d="M72.63,122.92c32.84-10.84,69.89-37,69.89-72.81,0-17.79-9.55-34-28.48-34-28.79,0-60,40.45-66,102.73H45.77c-7.28,0-11.49,2.91-11.49,5.5,0,2.11,2.59,3.88,8.42,3.88,1.45,0,3.07-.16,4.69-.16-.33,3.89-.33,7.93-.33,12,0,15,7.93,22.81,18.45,22.81,5.34,0,11.32-1.94,17.31-6-4-7-7.12-15.85-8.9-25.72,25.24,15.69,38.83,46.11,62.77,46.11,7.93,0,14.56-5,15.86-15.05-20.87-1.46-51.13-25.08-79.6-36.73A16.18,16.18,0,0,1,72.63,122.92ZM47.39,126c-1.46,0-2.91.16-4.37.16-3.72,0-5-.65-5-1.29,0-1.3,4.37-2.91,7.61-2.91a8.08,8.08,0,0,1,2.1.16A34.52,34.52,0,0,1,47.39,126Zm23.94-24.91c0-35.76,10.36-71.51,28.48-71.51,13.91,0,16.17,19.9,16.17,29.6,0,27-20.22,49.51-43.84,60.19A170.25,170.25,0,0,1,71.33,101.08Z"/></svg>