<?xml version="1.0" encoding="utf-8"?>
<!-- Generator: Adobe Illustrator 24.1.2, SVG Export Plug-In . SVG Version: 6.00 Build 0)  -->
<svg version="1.1" id="Ebene_1" xmlns="http://www.w3.org/2000/svg" xmlns:xlink="http://www.w3.org/1999/xlink" x="0px" y="0px"
	 viewBox="0 0 1298.4 368.1" style="enable-background:new 0 0 1298.4 368.1;" xml:space="preserve">
<path d="M173.4,107.9c7.3,0,15.2-4.7,15.2-13.2c0-7.3-5.9-10.8-12.2-10.8c-7.3,0-15.2,4.7-15.2,13.2
	C161.2,104.4,167.1,107.9,173.4,107.9z"/>
<path d="M354.6,107.9c7.3,0,15.2-4.7,15.2-13.2c0-7.3-5.9-10.8-12.2-10.8c-7.3,0-15.2,4.7-15.2,13.2
	C342.4,104.4,348.3,107.9,354.6,107.9z"/>
<g>
	<path d="M58,161.4c49.6-16.4,105.7-56,105.7-110.1c0-26.9-14.5-51.4-43-51.4C77,0,29.8,61.1,20.8,155.3h-3.4
		c-11,0-17.4,4.4-17.4,8.3c0,3.2,3.9,5.9,12.7,5.9c2.2,0,4.7-0.2,7.1-0.2c-0.5,5.9-0.5,12-0.5,18.1c0,22.7,12,34.5,27.9,34.5
		c8.1,0,17.1-2.9,26.2-9c-6.1-10.5-10.8-24-13.5-38.9c38.2,23.7,58.7,69.7,94.9,69.7c12,0,22-7.6,24-22.8
		c-31.5-2.2-77.3-37.9-120.3-55.5C58.2,164,58,162.7,58,161.4z M19.8,166.1c-2.2,0-4.4,0.2-6.6,0.2c-5.6,0-7.6-1-7.6-1.9
		c0-2,6.6-4.4,11.5-4.4c1.1-0.1,2.1,0,3.2,0.3C20.3,162.2,20.1,164.1,19.8,166.1z M56,128.4c0-54,15.7-108.1,43-108.1
		c21,0,24.5,30.1,24.5,44.8c0,40.8-30.6,74.8-66.3,91C56.3,146.9,55.9,137.6,56,128.4z"/>
	<path d="M553.2,233.6c0.1,0,0.1,0,0.2,0c62.8,0,112.5-51.4,112.5-92.2c0-20.5-12.7-38.4-42.8-45.7c18.1-16.1,31.3-37.7,31.3-55.5
		c0-19.3-15.7-34.7-58-34.7c-51.6,0-118.1,32.8-118.1,83.9c0,8.1,4.4,14.4,12.2,14.4c3.4,0,7.3-1,12-2.7c0-50.9,36.7-81.9,67.3-81.9
		c26.9,0,38.9,21.8,38.9,44.3c0,10.1-2.4,20-6.8,29.1c-3.9-0.4-7.8-0.5-11.7-0.5c-19.1,0-30.6,11.3-30.6,19.6c0,5.6,3.9,8.3,10,8.3
		c13.9,0,29.3-6.4,43-16.1c9,6.6,13.2,17.4,13.2,29.8c0.1,37.6-36.6,91.4-83.1,91.4c-22.3,0-46-9.3-46-32
		c0-15.6,11.7-31.8,27.4-34.2c4.6,24,10.8,40.8,11.3,40.8c4.4,0,9.8-3.4,9.8-5.9v-26c7.8-0.7,11.3-4.2,11.3-7.8
		c0-5.6-5.6-8.1-11.3-9.3c0.5-38.2,2-70.2,7.8-107.6c-26.7,0-34.7,26.4-34.7,60.6c0.2,16.1,1.6,32.1,4.4,47.9
		c-21,5.1-34,22.3-34,39.6c0,18.9,13,30,28.8,36.1c-26.1-3.7-52.9-5.7-78.9-5.7c-44.3,0-86.6,5.9-119.8,19.1
		c-5.9-22.7-11.7-45.7-13-68.7c5.6-9.3,9-19.3,9.5-28.1c-2.7-1.4-5.8-2-8.8-1.9c-10.5,0-21,7.6-21,16.4c0.1,8.5,0.9,17,2.5,25.4
		c-3.5,1.9-7.3,2.9-11.3,2.9c-10.8,0-15.4-9.1-15.4-20.3c0-17.4,11.3-39.4,28.6-39.4c8.1,0,12.2,4.6,13.2,10.5
		c5.1-0.5,10.3-4.4,10.3-6.8c0-3.7-5.6-7.8-17.4-7.8c-40,0-61.2,23.9-63.8,45.4c-11.7,16.3-21.3,23.1-28.6,23.1
		c-10.3,0-15.9-13.5-15.9-32.8c0.1-5.6,0.5-11.3,1.2-16.9c-2-1.5-4.9-2.2-8.3-2.2c-9.5,0-22.3,5.9-22.3,16.9
		c0,33.5,13.5,48.2,30.6,48.2c13.9,0,30.3-10,43.3-27.6c1.7,13.5,11.6,24.5,30.1,24.5c9.8,0,19.1-4.2,27.2-10.8
		c4.1,18.3,11,36.9,17.4,55.3c-35.5,17.4-58.4,44.8-58.4,84.4c0,25.7,16.6,37.9,35,37.9c22.8,0,48.4-18.6,48.4-52.1
		c0-22-5.1-44.8-11-67.7c15.2-4.6,34-6.6,55-6.6c115,0,294.2,63.1,310.4,118.9c19.5-1.7,28.1-18.3,28.1-28.4
		C714.2,289.1,641.3,251.8,553.2,233.6z M570.3,114c-2.7,0-4.4-1.5-4.4-4.4c0-5.1,11-12.2,23.2-12.2c3.1,0,6.2,0.2,9.3,0.7
		C591.9,107.6,582.3,114,570.3,114z M322.3,315.3c0,17.1-6.1,24.2-13.9,24.2c-12.5,0-28.6-18.6-28.6-46c0-19.3,11-32.5,29.1-40.8
		C316.2,274.2,322.3,295.4,322.3,315.3z"/>
	<path d="M370,204.5c16.6,0,36.7-14.2,50.4-38.7c2.9-5.1,5.9-10,8.1-14.9l-4.6-1.2c-2.4,5.3-5.2,10.5-8.3,15.4
		c-12.7,18.6-23,26.2-30.8,26.2c-10.3,0-15.9-13.4-15.9-32.8c0.1-5.6,0.5-11.3,1.2-16.9c-2-1.5-4.9-2.2-8.3-2.2
		c-9.5,0-22.3,5.9-22.3,16.9C339.5,189.8,352.9,204.5,370,204.5z"/>
	<path d="M1293.8,149.7c-2.4,5.3-5.2,10.5-8.3,15.4c-11,16.1-21.8,24.5-30.8,24.5c-11.7,0-20.1-14.4-20.1-44.3
		c0-2.5,0.3-4.9,0.3-7.6c-3.6-1.5-7.4-2.2-11.3-2.2c-25.2,0-32.5,22.7-41.1,47.4c-1.5,3.9-3.7,11.7-5.1,11.7c-1,0-1.7-3.4-1.7-13
		c0-17,2.1-33.9,6.1-50.4c-3.6-1.1-7.3-1.7-11-1.7c-17.4,0-24.7,14.4-24.7,26.7c0.1,3.2,0.5,6.5,1.2,9.6
		c-10.6,15.8-27.9,29.3-45.2,29.3c-13.4,0-20.8-8.1-23.7-18.6c22.5,0,40.8-23.5,40.8-39.6c0-8.6-5.1-14.9-17.4-14.9
		c-25,0-53.6,33-53.6,57.7c0,0.9,0,1.8,0.1,2.7c-5.6,4.7-10.9,7.1-15.8,7.1c-11.7,0-20-14.4-20-44.3c0-2.5,0.2-4.9,0.2-7.6
		c-3.6-1.5-7.4-2.2-11.3-2.2c-25.2,0-32.5,22.7-41.1,47.4c-1.5,3.9-3.7,11.7-5.1,11.7c-1,0-1.7-3.4-1.7-13c0-17,2.1-33.9,6.1-50.4
		c-3.6-1.1-7.3-1.7-11-1.7c-17.4,0-24.7,14.4-24.7,26.7c0.2,4.1,0.7,8.2,1.7,12.3c-10.2,13.9-20,21-28.4,21c-11.7,0-20-14.4-20-44.3
		c0-2.5,0.2-4.9,0.2-7.6c-3.6-1.5-7.4-2.2-11.3-2.2c-8.8,0-17.6,3.4-20.3,11c-4.4,12.2-11.7,32-19.1,43.8
		c-0.5-11.5-0.7-25.7-1.2-40.1c13-20.3,51.6-84.4,51.6-116.9c0-15.9-12-25.2-23.7-25.2c-41.9,0-41.6,82.9-43.3,148.5
		c-1.5,2.9-3.1,5.8-4.9,8.5c-13.2,20.1-26.7,30.6-36.9,30.6c-6.1,0-10-5.4-12.7-12.7c7.3-9.5,11.5-20.3,11.5-28.9
		c0-8.1-3.9-13.9-12-13.9c-13.2,0-18.8,10.5-18.8,23.2c0,8.6,2.2,17,6.4,24.5c-5.6,4.3-12.5,6.7-19.6,6.6c-10.3,0-14.9-11-14.9-24
		c0-18.3,9-40.3,24-40.3c5.6,0,11.3,1,13.5,8.3c7.1-0.7,10.3-3.2,10.3-5.9c0-3.7-5.9-7.8-16.2-7.8c-36.9,0-60.7,30.8-60.7,54.8
		c0,14.9,9.3,27.2,30.6,27.2c13.3,0,26.2-4.7,36.4-13.3c4.9,5.9,11,10,18.3,10c13.1,0,30.4-14,45.5-37c-0.5,15.7-1.3,30-2.9,41.4
		c1.1,1,2.6,1.5,4.2,1.5c4.9,0,11.5-3.2,11.5-3.2c9.5-11.7,16.2-22.5,26.4-49.2c2.2,33.8,15.2,47.5,31.3,47.5
		c15,0,32.5-11.8,46.7-30.1c4.3,15.4,12.8,33.2,23.5,33.2c2.5,0,5-0.5,7.3-1.5c5.9-7.6,14.4-45.2,25.9-55.8
		c2.7,37.2,16.6,52.1,33.8,52.1c10.1,0,21.3-5.3,31.8-14.5c3.3,10.5,14,18.1,35.5,18.1c23.5,0,47.9-12.7,63.7-34.1
		c4.1,15.8,12.9,35.5,24.1,35.5c2.5,0,5-0.5,7.3-1.5c5.9-7.6,14.4-45.2,25.9-55.8c2.7,37.2,16.6,52.1,33.8,52.1
		c16.6,0,36.2-14.4,50.6-36.4c3.1-4.8,5.8-9.7,8.1-14.9L1293.8,149.7z M752.3,160c0-9.5,1.7-17.1,4.6-17.1c3.4,0,4.9,3.4,4.9,8.6
		c0,6.6-2.7,15.9-8.1,24.2C752.8,170.5,752.3,165.3,752.3,160z M823.5,78.8c0-28.6,12.2-55.5,20.3-55.5c4.2,0,7.1,6.6,7.1,23
		c0,26.9-14.9,74.3-25.7,94.9C824.5,115.2,823.5,90.1,823.5,78.8z M1076.9,164.6c0-16.9,8.3-34.7,19.8-34.7c3.7,0,5.1,2.9,5.1,7.1
		c0,12.2-12.5,36.2-24.2,36.2C1077.1,170.4,1076.9,167.5,1076.9,164.6z"/>
</g>
</svg>
