<svg version="1" xmlns="http://www.w3.org/2000/svg" width="933.333" height="933.333" viewBox="0 0 700.000000 700.000000"><path d="M313 1.6c-73.7 7.9-142.8 38.7-197.5 88.1C58.9 140.8 20.4 208.8 6.1 283 1.2 308.4.5 316 .5 350c0 34.7.7 41.8 6.1 69.5 9.2 46.3 28.9 92 56.7 131.7 22.6 32.2 52.8 62.6 84.1 84.5 48.2 33.9 98.2 53.4 158.7 62 17.7 2.5 70.1 2.5 87.8 0 42.3-6 76.8-16.5 112.1-34.2 69.3-34.6 123.4-88.8 157.5-158 18.6-37.8 27.6-66.8 34.2-111 2.5-17.2 2.6-71.6 0-89-7.1-48.1-20.7-89.1-42.2-127C598.7 78.3 499.6 13.3 385.8 1.5c-18-1.8-55.2-1.8-72.8.1zm111.5 58.3c36 9.6 61 38.8 70.6 82.4 2.6 11.9 3.7 40.4 2 54.4-8.1 66.1-53.8 129-129.7 178.6-30.5 19.9-63.9 36.6-99.9 49.8-13.8 5-14.2 5.4-13.1 11.4.6 2.8 1.3 3.5 5.4 5 19.3 7.4 55.1 25.8 115.2 59.3 83.1 46.3 117.5 61.5 150.1 66.3 9.3 1.3 9.3 1.3 5.4 13.6-8.5 26.8-29.5 40.9-58 39-24-1.6-46.1-11.5-72.5-32.5-5.2-4.2-29.5-27.7-54-52.3-31.1-31.2-48.3-47.6-57.3-54.8-12.9-10.2-29.4-21.8-30.1-21-.8.9 6.4 30 10.4 42.3 4.9 15 11.6 31.4 16.6 40.4 1.9 3.5 3.2 6.7 2.9 7.3-.3.5-3.8 2.8-7.8 5.1-48.7 28.5-96.1 16.1-110.3-28.7-4.6-14.6-5.7-25.3-5.1-52.8l.5-24.7h-13.7c-18.7 0-27.3-2.6-30.7-9.2-1.2-2.3-1.3-3.6-.4-6.2 3-9.1 16.5-15 37.2-16.2l10.4-.7 1.7-15.1c16-142.5 76.5-267.4 154.7-319.1 17.5-11.5 37.7-20.1 54.5-23 11.8-2.1 34.7-1.4 45 1.4z"/><path d="M340.5 104c-46 9.2-80.2 86.6-89.6 203-1.6 19.9-1.6 79.5 0 97 .6 7.4 1.4 13.6 1.5 13.8.7.6 22.6-10.8 33.1-17.2 21-12.9 46.2-33.5 60.8-49.8 33.1-36.8 52-75.3 58.3-118.8 2-14.2 1.5-46.5-1-60.5-4.2-23.2-11.8-42.5-20.6-52.7-10.6-12.2-26.9-17.9-42.5-14.8zM153.7 427c-10.2 1.3-20.7 6.3-20.7 9.9 0 3.1 4.9 4.4 18.1 4.9 15.2.5 15.9.1 15.9-8.7 0-5.7-.1-5.9-3.1-6.5-1.7-.3-3.4-.5-3.8-.5-.3.1-3.2.5-6.4.9z"/></svg>